<svg width="101" height="107" viewBox="0 0 101 107" fill="none" xmlns="http://www.w3.org/2000/svg">
<path d="M37.8545 3.40971C45.6626 -1.09832 55.2826 -1.09832 63.0908 3.40971L87.4107 17.4508C95.2188 21.9589 100.029 30.2901 100.029 39.3061V67.3883C100.029 76.4044 95.2188 84.7356 87.4107 89.2436L63.0908 103.285C55.2826 107.793 45.6626 107.793 37.8545 103.285L13.5345 89.2436C5.7264 84.7356 0.916382 76.4044 0.916382 67.3883V39.3061C0.916382 30.2901 5.7264 21.9589 13.5345 17.4508L37.8545 3.40971Z" fill="#FCF2F3"/>
<path fill-rule="evenodd" clip-rule="evenodd" d="M50.4735 24.2003C51.8542 24.2003 52.9735 25.3196 52.9735 26.7003V35.21C52.9735 36.5907 51.8542 37.71 50.4735 37.71C49.0928 37.71 47.9735 36.5907 47.9735 35.21V26.7003C47.9735 25.3196 49.0928 24.2003 50.4735 24.2003ZM71.2002 32.7857C72.1765 33.762 72.1765 35.3449 71.2002 36.3212L65.1829 42.3385C64.2066 43.3148 62.6237 43.3148 61.6474 42.3385C60.6711 41.3621 60.6711 39.7792 61.6474 38.8029L67.6647 32.7857C68.641 31.8093 70.2239 31.8093 71.2002 32.7857ZM29.7468 32.7857C30.7231 31.8094 32.306 31.8094 33.2823 32.7857L39.2996 38.803C40.2759 39.7793 40.2759 41.3622 39.2996 42.3385C38.3233 43.3148 36.7403 43.3148 35.764 42.3385L29.7468 36.3212C28.7704 35.3449 28.7704 33.762 29.7468 32.7857ZM50.4728 45.0436C45.7956 45.0436 42.0039 48.8352 42.0039 53.5125C42.0039 58.1898 45.7956 61.9814 50.4728 61.9814C55.1501 61.9814 58.9417 58.1898 58.9417 53.5125C58.9417 48.8352 55.1501 45.0436 50.4728 45.0436ZM37.0039 53.5125C37.0039 46.0738 43.0341 40.0436 50.4728 40.0436C57.9115 40.0436 63.9417 46.0738 63.9417 53.5125C63.9417 60.9512 57.9115 66.9814 50.4728 66.9814C43.0341 66.9814 37.0039 60.9512 37.0039 53.5125ZM21.161 53.5126C21.161 52.1319 22.2803 51.0126 23.661 51.0126H32.1707C33.5514 51.0126 34.6707 52.1319 34.6707 53.5126C34.6707 54.8933 33.5514 56.0126 32.1707 56.0126H23.661C22.2803 56.0126 21.161 54.8933 21.161 53.5126ZM66.2758 53.5126C66.2758 52.1319 67.3951 51.0126 68.7758 51.0126H77.2856C78.6663 51.0126 79.7856 52.1319 79.7856 53.5126C79.7856 54.8933 78.6663 56.0126 77.2856 56.0126H68.7758C67.3951 56.0126 66.2758 54.8933 66.2758 53.5126ZM61.6477 64.6865C62.624 63.7102 64.207 63.7102 65.1833 64.6865L71.2005 70.7038C72.1769 71.6801 72.1769 73.263 71.2005 74.2393C70.2242 75.2156 68.6413 75.2156 67.665 74.2393L61.6477 68.222C60.6714 67.2457 60.6714 65.6628 61.6477 64.6865ZM39.2996 64.6866C40.2759 65.6629 40.2759 67.2459 39.2996 68.2222L33.2823 74.2394C32.306 75.2158 30.7231 75.2158 29.7468 74.2394C28.7704 73.2631 28.7704 71.6802 29.7468 70.7039L35.764 64.6866C36.7403 63.7103 38.3233 63.7103 39.2996 64.6866ZM50.4735 69.3151C51.8543 69.3151 52.9735 70.4344 52.9735 71.8151V80.3248C52.9735 81.7055 51.8543 82.8248 50.4735 82.8248C49.0928 82.8248 47.9735 81.7055 47.9735 80.3248V71.8151C47.9735 70.4344 49.0928 69.3151 50.4735 69.3151Z" fill="#FF8189"/>
</svg>
