<svg width="100" height="107" viewBox="0 0 100 107" fill="none" xmlns="http://www.w3.org/2000/svg">
<path d="M37.5128 3.40971C45.3209 -1.09832 54.941 -1.09832 62.7491 3.40971L87.069 17.4508C94.8772 21.9589 99.6872 30.2901 99.6872 39.3061V67.3883C99.6872 76.4044 94.8772 84.7356 87.069 89.2436L62.7491 103.285C54.941 107.793 45.3209 107.793 37.5128 103.285L13.1929 89.2436C5.38472 84.7356 0.574707 76.4044 0.574707 67.3883V39.3061C0.574707 30.2901 5.38472 21.9589 13.1929 17.4508L37.5128 3.40971Z" fill="#FCF2F3"/>
<path fill-rule="evenodd" clip-rule="evenodd" d="M50.1315 31.2825C48.5385 31.2825 46.9901 31.8081 45.7263 32.7778C44.4625 33.7476 43.554 35.1073 43.1417 36.6459C42.7843 37.9796 41.4135 38.7711 40.0798 38.4137C38.7462 38.0564 37.9547 36.6855 38.312 35.3519C39.0092 32.75 40.5454 30.4509 42.6825 28.8111C44.8195 27.1713 47.4378 26.2825 50.1315 26.2825C52.8251 26.2825 55.4435 27.1713 57.5805 28.8111C59.7176 30.4509 61.2538 32.75 61.9509 35.3519C62.3083 36.6855 61.5168 38.0564 60.1832 38.4137C58.8495 38.7711 57.4787 37.9796 57.1213 36.6459C56.709 35.1072 55.8005 33.7476 54.5367 32.7778C53.2729 31.8081 51.7245 31.2825 50.1315 31.2825ZM29.0925 38.2013C29.7816 37.6937 30.6825 37.5738 31.4803 37.8837L50.1304 45.1268L68.7805 37.8837C69.5784 37.5738 70.4792 37.6937 71.1683 38.2013C71.8574 38.7089 72.239 39.5337 72.1796 40.3875L70.1796 69.147C70.1194 70.0121 69.6153 70.7842 68.8474 71.1872L51.2923 80.401C50.5648 80.7828 49.6961 80.7828 48.9686 80.401L31.4134 71.1872C30.6456 70.7842 30.1414 70.0121 30.0813 69.147L29.5491 61.4948L25.8617 59.9509C24.5881 59.4177 23.988 57.953 24.5212 56.6794C25.0544 55.4058 26.5192 54.8056 27.7927 55.3389L29.1609 55.9117L28.8881 51.9897L25.4906 50.6654C24.2041 50.1639 23.5678 48.7146 24.0692 47.4281C24.5706 46.1417 26.02 45.5053 27.3064 46.0068L28.5045 46.4738L28.0813 40.3875C28.0219 39.5337 28.4034 38.7089 29.0925 38.2013ZM34.0398 53.9978L41.4825 56.8988C42.769 57.4002 44.2183 56.7639 44.7197 55.4774C45.2212 54.191 44.5848 52.7416 43.2984 52.2402L33.6562 48.4818L33.3425 43.9708L47.6304 49.5198V74.0518L34.9724 67.4083L34.7115 63.6563L41.4248 66.4671C42.6984 67.0003 44.1631 66.4001 44.6964 65.1266C45.2296 63.853 44.6295 62.3883 43.3559 61.855L34.3233 58.0731L34.0398 53.9978ZM52.6304 74.0518L65.2884 67.4083L66.9183 43.9708L52.6304 49.5198V74.0518Z" fill="#FF8189"/>
</svg>
