<svg width="100" height="107" viewBox="0 0 100 107" fill="none" xmlns="http://www.w3.org/2000/svg">
<path d="M37.1961 3.40971C45.0043 -1.09832 54.6243 -1.09832 62.4324 3.40971L86.7524 17.4508C94.5605 21.9589 99.3705 30.2901 99.3705 39.3061V67.3883C99.3705 76.4044 94.5605 84.7356 86.7524 89.2436L62.4324 103.285C54.6243 107.793 45.0043 107.793 37.1961 103.285L12.8762 89.2436C5.06807 84.7356 0.258057 76.4044 0.258057 67.3883V39.3061C0.258057 30.2901 5.06807 21.9589 12.8762 17.4508L37.1961 3.40971Z" fill="#FCF2F3"/>
<path fill-rule="evenodd" clip-rule="evenodd" d="M25.9308 38.7952C25.9308 37.4145 27.05 36.2952 28.4308 36.2952H71.1962C72.577 36.2952 73.6962 37.4145 73.6962 38.7952V53.2643C73.6962 66.4544 63.0036 77.1471 49.8135 77.1471C36.6234 77.1471 25.9308 66.4544 25.9308 53.2643V49.5503H23.8647C22.484 49.5503 21.3647 48.431 21.3647 47.0503C21.3647 45.6696 22.484 44.5503 23.8647 44.5503H25.9308V38.7952ZM30.9308 49.5503L52.7563 49.5503C54.137 49.5503 55.2563 48.431 55.2563 47.0503C55.2563 45.6696 54.137 44.5503 52.7563 44.5503L30.9308 44.5503V41.2952H68.6962V52.8895C59.3054 54.1969 52.0766 62.2593 52.0766 72.0101H52.0992C51.3499 72.1005 50.5871 72.1471 49.8135 72.1471C49.0399 72.1471 48.2771 72.1005 47.5278 72.0101H47.5512C47.5512 62.259 40.322 54.1964 30.9308 52.8894V49.5503ZM42.4897 70.6742C37.1443 68.4228 33.0525 63.7815 31.5526 58.0883C37.4389 59.4814 41.9189 64.5111 42.4897 70.6742ZM68.0744 58.0885C66.5745 63.7813 62.4831 68.4223 57.1382 70.6738C57.7091 64.5112 62.1886 59.4819 68.0744 58.0885Z" fill="#FF8189"/>
</svg>
